# xmcd
#
# Track frame offsets:
#	150
#	11904
#	24925
#	39067
#	50879
#	65834
#	78203
#	88119
#	99768
#	111972
#
# Disc length: 1659 seconds
#
# Revision: 1
# Processed by: cddbd v1.5.2PL0 Copyright (c) Steve Scherf et al.
# Submitted via: audiograbber 1.83.01
#
DISCID=7506790a
DTITLE=Various Artist - 70s Country
DYEAR=2002
DGENRE=Country
TTITLE0=Anderson, Lynn - You're My Man
TTITLE1=Young, Faron - It's Four In The Morning
TTITLE2=Fairchild, Barbara - Teddy Bear Song
TTITLE3=Fargo, Donna - Funny Face
TTITLE4=Gibson, Don - Woman (Sensuous Woman)
TTITLE5=Pruett, Jeanne  - Satin Sheets
TTITLE6=Anderson, Lynn - What A Man, My Man Is
TTITLE7=Fargo, Donna - The Happiest Girl In The Whole Usa
TTITLE8=Fender, Freddy - Before The Last Teardrop Falls
TTITLE9=Paycheck, Johnny - Take This Job And Shove It
EXTD=YEAR: 2002
EXTT0=
EXTT1=
EXTT2=
EXTT3=
EXTT4=
EXTT5=
EXTT6=
EXTT7=
EXTT8=
EXTT9=
PLAYORDER=
